<svg id="OBJECTS" xmlns="http://www.w3.org/2000/svg" viewBox="0 0 829.88 599.05"><defs><style>.cls-1{fill:#b7d7f2;opacity:0.4;}.cls-2{fill:#00004f;}.cls-13,.cls-3,.cls-4,.cls-5,.cls-6{fill:#00599c;}.cls-3,.cls-4,.cls-5,.cls-6,.cls-7,.cls-8,.cls-9{stroke:#f5f5f5;stroke-miterlimit:10;}.cls-3{stroke-width:1.5px;}.cls-4,.cls-7{stroke-width:2.49px;}.cls-5,.cls-8{stroke-width:1.86px;}.cls-6,.cls-9{stroke-width:1.99px;}.cls-7,.cls-8,.cls-9{fill:none;}.cls-10{fill:#4d3656;}.cls-11{fill:#ffd07b;}.cls-12{fill:#f27792;}.cls-14{fill:#00387e;}.cls-15{fill:#6cc394;}.cls-16{fill:#f5f5f5;}</style></defs><path class="cls-1" d="M264.06,638.47H858.87a153.41,153.41,0,0,0,4.9-23.84c5-40.59-7.38-62.16-24.46-79.39-11.15-11.25-24.31-20.65-36-32.3-14.66-14.64-19.32-41-19.46-66.3-.21-33.65,9.56-64.84,15.11-96.81a215.14,215.14,0,0,0-3.9-93.43c-7.29-27.24-20.44-50.43-36.61-66.6C740.63,162,719,154,697.79,154.13c-23.5.12-46.16,11.34-69.55,13.18-18.88,1.48-36.16-5.17-49.89-25.4-11.38-16.74-19.26-38-29.05-56.76-10.61-20.27-23.71-36.59-40.64-42.72C491,36,472.12,40.2,455.68,51.3,438.87,62.65,425.49,82.54,418.21,108c-8.84,31-4.8,67.7-2,100,2.75,32.1,5.41,66-2.29,97.11-5.72,23.13-18.85,37.11-32.67,48.49-7.74,6.36-15.64,12.22-23.32,18.75-9.17,7.79-17.46,17-25.68,26.9-17.67,21.21-34.31,44.79-47.52,72.57-19.31,40.6-29.13,94-24.35,143.8A172.7,172.7,0,0,0,264.06,638.47Z" transform="translate(-35.01 -39.42)"/><path class="cls-1" d="M619.2,638.47c.1-4.1.09-8.2,0-12.3.33-3.41.55-6.85.73-10.26a163.9,163.9,0,0,0-3.49-42.62c-5.84-26.85-18.56-48.53-34-64a99.05,99.05,0,0,0-48.6-26.77c-13.64-3.2-28.77-4.24-41.22-14.1C478,456.79,479,433.35,483,412.12c5.55-29.43,18.76-53.61,29.06-79.44,10.34-26,16-53.59,13.88-84.08-2-28.42-10.79-56.12-23.73-76.89s-32.62-36.11-51.82-33.09c-19,3-31.57,30.25-51.1,29.39-10.6-.46-19.79-9.52-28-18.65-9.08-10.06-17.81-20.77-26.76-31-17.44-20-36.82-35.89-58.56-41.67C264.6,71,243,77.67,223.51,90.77a122.86,122.86,0,0,0-54,94.9c-1,14.2,1.12,28.77,3.48,42.45,3.49,20.22,11,41.15,10.47,62.46-.68,26.55-19.49,43.9-32.42,57-18.48,18.68-37.56,36.07-55,57a232.67,232.67,0,0,0-42,75.28,379.67,379.67,0,0,0-18.52,96.51c-1.3,20.93-.48,42.37,3.89,62.1Z" transform="translate(-35.01 -39.42)"/><path class="cls-2" d="M429.26,223.63l-18.69,22.1A151.56,151.56,0,0,1,214.83,477.18l-18.69,22.09A180.5,180.5,0,0,0,429.26,223.63Z" transform="translate(-35.01 -39.42)"/><rect class="cls-2" x="97.29" y="353.61" width="427.68" height="12.13" transform="translate(-199.42 325.58) rotate(-49.78)"/><rect class="cls-2" x="249.83" y="490.69" width="21.83" height="70.34"/><rect class="cls-2" x="219.53" y="556.99" width="82.46" height="20.21"/><rect class="cls-2" x="204.98" y="573.16" width="111.57" height="25.87"/><path class="cls-3" d="M443.12,357A131.85,131.85,0,1,1,311.21,225.2,131.83,131.83,0,0,1,443.12,357Z" transform="translate(-35.01 -39.42)"/><path class="cls-4" d="M425.26,341.82c-8.34,65.7-66.14,125.79-129.09,134.2s-107.23-38-98.88-103.75,66.14-125.79,129.09-134.19S433.61,276.11,425.26,341.82Z" transform="translate(-35.01 -39.42)"/><path class="cls-5" d="M399.23,319.72C378.67,375.05,322.62,436.63,274,457.24s-71.28-7.53-50.72-62.87S299.93,277.46,348.5,256.85,419.79,264.38,399.23,319.72Z" transform="translate(-35.01 -39.42)"/><path class="cls-6" d="M382.08,303.23c-29.74,47.54-84.47,110.22-122.23,140s-44.25,15.4-14.5-32.13,84.47-110.23,122.23-140S411.83,255.69,382.08,303.23Z" transform="translate(-35.01 -39.42)"/><path class="cls-7" d="M296.05,243.06c65.7,8.34,125.79,66.14,134.2,129.09S392.21,479.38,326.5,471,200.71,404.89,192.31,341.94,230.35,234.71,296.05,243.06Z" transform="translate(-35.01 -39.42)"/><path class="cls-8" d="M274,269.09c55.34,20.56,116.91,76.61,137.52,125.19S403.94,465.56,348.6,445s-116.9-76.6-137.52-125.18S218.61,248.53,274,269.09Z" transform="translate(-35.01 -39.42)"/><path class="cls-9" d="M257.88,288c47.79,29.45,110.44,84.22,139.93,122.33s14.65,45.15-33.14,15.7S254.23,341.84,224.74,303.73,210.08,258.58,257.88,288Z" transform="translate(-35.01 -39.42)"/><path class="cls-10" d="M781.93,386.72c-2-4.29-5.34-7.56-9.08-10.36-2.69-2-7-3.77-7.87-7.31-1.08-4.22,1.89-10.12,3.1-14.13s2-8.26.33-12.25c-1.81-4.41-5.77-7.36-9.67-9.85a21,21,0,0,1-8.94-12.26c-2.71-9.3-1.43-19.28-3.59-28.71-2.43-10.58-9.77-17.37-19.43-21.65-15.56-6.86-41.69-2.21-48.26,14.76-7.4-6.34-17.25-6.2-25,.61-9.22,8.08-9,21-5.56,31.76,1.76,5.41,4.1,10.71,3.77,16.52-.28,4.8-4.64,8.3-7.84,11.35-8.47,8.06-11.76,16.52-10.36,28.23a18.23,18.23,0,0,0,7.8,13.15c4.94,3.61,10.67,3.69,12.11,10.59,1.14,5.59-.61,11.95-1.2,17.53a38.75,38.75,0,0,0,2.24,17.3c4,11.31,15.19,18.34,26,21.89,14,4.56,29.2,1.8,42.68-2.92,20.26-7.09,43.92-17.92,56.36-36.29A27.72,27.72,0,0,0,781.93,386.72Z" transform="translate(-35.01 -39.42)"/><path class="cls-11" d="M724.32,558.06c-14.3-24.23-41.65-47.31-56.26-57.15-25.47-17.15-52.68-32-84.13-23.59-29.56,7.92-56.08,24.33-77.11,46.46-7.22,7.59-14.35,15.34-20.39,23.92-4.69,6.7-7.55,13.54-10.46,20.8-.71,1.74-1.41,3.5-2.14,5.31-2.45,6-9.2,8-15,9.14-11.52,2.18-23.54,2.06-34.93,4.75-6.75,1.61-25.19,7.19-18.6,18.09,8.58,14.14,33,12.63,47.09,14.24,9.31,1.07,18.08-2.62,25.51-7.95,6.45-4.62,10.14-11.63,14.7-17.89A170.49,170.49,0,0,1,509,575.68c6.51-6.64,12.47-13.71,18.79-20.49,21.2-22.74,56.68-33,83.86-13.74C643,563.7,666.28,648.69,717,614.73,739.19,599.89,736.42,578.56,724.32,558.06Z" transform="translate(-35.01 -39.42)"/><path class="cls-11" d="M724.32,558.07c-14.3-24.24-41.65-47.32-56.26-57.16-25.47-17.15-52.68-32-84.13-23.59-29.56,7.92-56.08,24.33-77.11,46.46-7.22,7.59-14.35,15.34-20.39,23.92-4.69,6.7-7.55,13.54-10.46,20.8-.71,1.74-1.41,3.5-2.14,5.31-2.45,6-9.2,8-15,9.14-11.52,2.18-23.54,2.06-34.93,4.75-6.75,1.61-25.19,7.19-18.6,18.09,8.58,14.14,33,12.63,47.09,14.24,9.31,1.07,18.08-2.62,25.51-7.94,6.45-4.63,10.14-11.64,14.7-17.9A170.39,170.39,0,0,1,509,575.69c6.51-6.65,12.47-13.72,18.79-20.5,21.2-22.74,56.68-33,83.86-13.74C643,563.7,666.28,648.69,717,614.73,739.19,599.89,736.42,578.56,724.32,558.07Z" transform="translate(-35.01 -39.42)"/><path class="cls-12" d="M446.74,624.8a68.49,68.49,0,0,0,22-5.16c2.68-1.15,17.32-7.3,13.8-10.84-2.1-2.11-11.55.59-14.09.86a45.29,45.29,0,0,1-16-.73c-5-1.27-11.16-3.56-15.3-6.74-2.52-1.92-10.47-8.61-12.92-14.32-8.5.07-24.6,4.87-24.1,16.18.57,12.69,10.36,18.13,22.15,19.71A117.64,117.64,0,0,0,446.74,624.8Z" transform="translate(-35.01 -39.42)"/><path class="cls-11" d="M776.07,500.61c-2.18-8.25-4.46-16.48-6.55-24.71-6.85-26.91-12.44-63.26-38.42-79a32.52,32.52,0,0,0-5.23-2.59c-.43-.44-.83-.88-1.28-1.31-6.82-6.47-10-14.12-10.17-23.36,6-7.17,10.07-17.35,12.71-24.48,6.16-2.17,10.61-9.12,9.17-15.85a13.65,13.65,0,0,0-9.16-10.11c-.29-.09-.62-.15-.92-.22-3.31-12.91-10.92-24.61-23.76-29.45-22.05-8.31-35.32,13.48-35.36,32.14,0,17,3.12,42.41,18.57,53,4.58,3.14,11.36,3.73,12,10.68.86,9.47-4.53,16.82-7.17,25.44-5.37,17.64-6.77,42.26-5.19,60.54,1.79,20.63,6.11,41.2,10.37,61.44,3.63,17.31,7.49,34.65,12.56,51.56,4.46,10.84,9,21.63,13.4,32.5,7.14,5.5,15.22,9,24.09,9,26.61-.12,36.52-33.31,38.89-54.75C787.28,547,782.15,523.7,776.07,500.61Z" transform="translate(-35.01 -39.42)"/><path class="cls-13" d="M777.38,499.07c-2.22-8.25-4.55-16.48-6.7-24.71-7-26.9-12.72-63.25-39.29-79a34.13,34.13,0,0,0-5.25-2.55c-4.28,9.6-12.72,18.89-18.8,23.83-6.37,5.17-13.46,10.25-21.62,12.32a190.31,190.31,0,0,0-1.17,40.85c1.83,20.62,6.25,41.19,10.6,61.44,3.72,17.31,7.66,34.65,12.85,51.55,4.56,10.85,9.24,21.63,13.71,32.5,7.3,5.51,15.57,9,24.63,9,27.21-.11,37.35-33.31,39.78-54.75C788.85,545.49,783.6,522.17,777.38,499.07Z" transform="translate(-35.01 -39.42)"/><path class="cls-14" d="M737,581.36a111.26,111.26,0,0,0-6.92-14.08C717.22,545,700.35,526.15,680.36,510c-4-3.2-8.07-6.29-12.3-9.13-25.47-17.15-52.68-32-84.13-23.59-29.56,7.92-56.08,24.33-77.11,46.46-7.22,7.59-14.35,15.34-20.39,23.92-4.69,6.7-7.55,13.54-10.46,20.8-.71,1.74-1.41,3.5-2.14,5.31a12.19,12.19,0,0,1-5.2,5.79,174.43,174.43,0,0,0,12.1,15.28c2.14,2.33,4.27,4.72,6.48,7,1.8-2.57,3.54-5.18,5.39-7.71A170.39,170.39,0,0,1,509,575.69c6.51-6.65,12.47-13.72,18.79-20.5,21.2-22.74,56.68-33,83.86-13.74,19.54,13.87,36,52.09,57.81,70.72a82.79,82.79,0,0,0,28,15.29c8.78,2.89,19.18,5.55,28.36,3a21.87,21.87,0,0,0,11.87-8.71C745.08,610,742.36,594.58,737,581.36Z" transform="translate(-35.01 -39.42)"/><path class="cls-11" d="M767.12,571.48c-14.31-24.24-41.66-47.32-56.26-57.16-25.47-17.14-52.69-32-84.13-23.58-29.56,7.92-56.09,24.33-77.11,46.45-7.23,7.59-14.36,15.34-20.4,23.92-4.69,6.7-7.55,13.54-10.46,20.8-.71,1.75-1.41,3.51-2.14,5.31-2.45,5.95-9.19,8-15,9.15-11.52,2.18-23.54,2.06-34.93,4.74-6.75,1.61-25.18,7.2-18.6,18.09,8.58,14.14,33,12.64,47.1,14.24,9.31,1.07,18.07-2.62,25.51-7.94,6.44-4.63,10.13-11.64,14.7-17.89a170.59,170.59,0,0,1,16.39-18.52c6.51-6.64,12.46-13.7,18.78-20.48,21.21-22.75,56.68-33,83.87-13.75,31.36,22.26,54.63,107.25,105.38,73.28C782,613.3,779.22,592,767.12,571.48Z" transform="translate(-35.01 -39.42)"/><path class="cls-11" d="M767.12,571.48c-14.31-24.24-41.66-47.32-56.26-57.16-25.47-17.14-52.69-32-84.13-23.58-29.56,7.92-56.09,24.33-77.11,46.45-7.23,7.59-14.36,15.34-20.4,23.92-4.69,6.7-7.55,13.54-10.46,20.8-.71,1.75-1.41,3.5-2.14,5.31-2.45,5.95-9.19,8-15,9.15-11.52,2.18-23.54,2.06-34.93,4.74-6.75,1.61-25.18,7.2-18.6,18.09,8.58,14.14,33,12.64,47.1,14.24,9.31,1.07,18.07-2.62,25.51-7.94,6.44-4.63,10.13-11.64,14.7-17.9a171.33,171.33,0,0,1,16.39-18.5c6.51-6.65,12.46-13.71,18.78-20.49,21.21-22.75,56.68-33,83.87-13.75,31.36,22.26,54.63,107.25,105.38,73.28C782,613.3,779.22,592,767.12,571.48Z" transform="translate(-35.01 -39.42)"/><path class="cls-12" d="M520.78,626.76c.69-.47,1.1-.92.85-1.67s-19.82-1.71-22-2.17c-6.87-1.41-14-3-19.72-7.31-2.51-1.93-10.47-8.62-12.92-14.32-8.5.07-24.6,4.87-24.09,16.17.56,12.7,10.35,18.13,22.14,19.72a119,119,0,0,0,24.53,1,68.6,68.6,0,0,0,21.33-4.91Q515.86,630.12,520.78,626.76Z" transform="translate(-35.01 -39.42)"/><path class="cls-14" d="M767.12,571.48c-14.31-24.24-41.66-47.32-56.26-57.16-25.47-17.14-52.69-32-84.13-23.58-29.56,7.92-56.09,24.33-77.11,46.45-7.23,7.59-14.36,15.34-20.4,23.92-4.69,6.7-7.55,13.54-10.46,20.8-.71,1.75-1.41,3.5-2.14,5.31a12.17,12.17,0,0,1-5.19,5.79,172.57,172.57,0,0,0,12.1,15.28c2.14,2.33,4.26,4.72,6.47,7,1.8-2.56,3.55-5.18,5.4-7.71a171.33,171.33,0,0,1,16.39-18.5c6.51-6.65,12.46-13.71,18.78-20.49,21.21-22.75,56.68-33,83.87-13.75,31.36,22.26,54.63,107.25,105.38,73.28C782,613.3,779.22,592,767.12,571.48Z" transform="translate(-35.01 -39.42)"/><path class="cls-10" d="M736.47,311.92c-.51-2.38-2.25-3.2-4.43-3.3-3.77-8.71-13.92-15.79-21.4-20.75-11.59-7.7-27.93-7.13-38.76,1.69a4,4,0,0,0-1.3,4.24l-.08.16a1.32,1.32,0,0,0,.27,1.25c3.2,3.8,9.85,4.72,14,7.32,5.85,3.64,10.72,8.63,16.8,11.94a50.67,50.67,0,0,0,20.58,5.88C726.83,320.64,737.9,318.65,736.47,311.92Z" transform="translate(-35.01 -39.42)"/><polygon class="cls-15" points="530.6 339.23 492.38 391.28 569.93 461.88 607.11 406.94 530.6 339.23"/><polygon class="cls-16" points="541.43 341.94 492.38 391.28 569.93 461.88 607.11 406.94 541.43 341.94"/><polygon class="cls-15" points="492.38 391.28 557.68 342.62 630.13 418.45 569.19 462.12 492.38 391.28"/><path class="cls-11" d="M731.61,457.37c8.78-8,16.21-17.32,19.24-26.83,3.44-10.87-6.52-19-16.86-14.85-11.73,4.72-18,15.87-25.68,25.11-9.32,11.13-22.22,19.13-36,23.57-16,5.17-34.25,6.83-50.18,0-7.65-3.27-14.06-7.7-20.83-12.49-3.11-2.2-11-7.22-13.6-11.31a17.73,17.73,0,0,1-.36-2.41c-.18-1.75-.26-3.5-.42-5.25a18,18,0,0,0-2.43-8.23c-.85-1.29-2.35-3.22-4.15-2.63-2.19.71-.74,2.57-.52,4,.29,2-1.52,5.24-3.69,2.93-1.54-1.66-2.92-3.44-4.95-4.5-3.14-1.64-6.3-3.13-9.64-1.32-9.71,5.25-3.65,16.09,2.88,20.86,4.12,3,9,4.83,12.89,8.11,4.65,3.89,7.68,9.38,12.22,13.39C610.48,484.05,635.42,497.08,664,492c14.29-2.57,28-8.5,40.65-15.39A141.73,141.73,0,0,0,731.61,457.37Z" transform="translate(-35.01 -39.42)"/><path class="cls-13" d="M743.69,409.65c-10.49-4.24-19.11,2.82-25.33,10.66-3.73,4.71-7.05,9.74-10.84,14.41s-8.43,8.37-12.43,12.81c-.7.77-5.83,7.34-5,8.25,4.38,4.89,10.59,8.67,15.68,12.19,3.4,2.36,7.68,3.91,10.64,6.86,2,2,9.42-6.8,10.48-7.83,2.65-2.57,5.35-5.11,7.93-7.76,9.48-9.79,22.88-26.2,17.87-40.94C751.34,414.34,747.75,411.29,743.69,409.65Z" transform="translate(-35.01 -39.42)"/><path class="cls-14" d="M693.19,278.93a34.49,34.49,0,0,1,14.14,17.9s16.55-6.93,26.63-4.74l5.7-18.42-40.77-11.4Z" transform="translate(-35.01 -39.42)"/><path class="cls-13" d="M690.69,255.89l24,22.26,36.61-4.35s-25.8-19.52-26.29-19.68-35,1.77-35,1.77" transform="translate(-35.01 -39.42)"/><path class="cls-14" d="M723.79,264.52a2.81,2.81,0,1,1-2-2.89A2.52,2.52,0,0,1,723.79,264.52Z" transform="translate(-35.01 -39.42)"/></svg>