<?xml version="1.0" encoding="utf-8"?>
<!-- Generator: Adobe Illustrator 25.0.1, SVG Export Plug-In . SVG Version: 6.00 Build 0)  -->
<svg version="1.1" id="Layer_1" xmlns="http://www.w3.org/2000/svg" xmlns:xlink="http://www.w3.org/1999/xlink" x="0px" y="0px"
	 viewBox="0 0 2800 1800" style="enable-background:new 0 0 2800 1800;" xml:space="preserve">
<style type="text/css">
	.st0{fill:#B7D7F2;}
	.st1{fill:#95BFD8;}
	.st2{fill:#9AC6E4;}
	.st3{fill:#E4F5FD;}
	.st4{fill:#FFFFFF;}
	.st5{fill:#F27792;}
	.st6{fill:#6CC394;}
	.st7{fill:#52AF7B;}
	.st8{fill:#72AECC;}
	.st9{fill:#4896B5;}
	.st10{fill:#B1DCC1;}
	.st11{fill:#C7D5DE;}
	.st12{fill:#D6DFE8;}
	.st13{fill:#4D3656;}
	.st14{fill:#E8A572;}
	.st15{fill:#FCC687;}
	.st16{fill:#444B59;}
	.st17{fill:#5B6475;}
	.st18{fill:#F29A7F;}
	.st19{fill:#6C7687;}
	.st20{fill:#6D5E76;}
	.st21{fill:#FBDE8E;}
	.st22{opacity:0.44;fill:#FFFFFF;enable-background:new    ;}
	.st23{fill:#D74C6B;}
	.st24{fill:#C7EAFA;}
	.st25{fill:#5D4E68;}
</style>
<circle class="st0" cx="1400" cy="916.3" r="712.8"/>
<ellipse class="st1" cx="1400" cy="1557.1" rx="952.4" ry="85.5"/>
<g>
	<path class="st2" d="M1078.2,327.3c-0.6,0-1.3-0.1-1.9-0.2c-0.6-0.1-1.3-0.3-1.9-0.6c-0.6-0.2-1.2-0.6-1.7-0.9
		c-0.6-0.4-1.1-0.8-1.5-1.2c-0.5-0.5-0.9-1-1.2-1.5c-0.4-0.5-0.7-1.1-0.9-1.7c-0.2-0.6-0.4-1.2-0.6-1.9c-0.1-0.6-0.2-1.3-0.2-1.9
		c0-0.6,0.1-1.3,0.2-1.9c0.1-0.6,0.3-1.3,0.6-1.9c0.3-0.6,0.6-1.2,0.9-1.7c0.4-0.6,0.8-1.1,1.2-1.5c0.5-0.5,1-0.9,1.5-1.2
		c0.5-0.4,1.1-0.7,1.7-0.9c0.6-0.2,1.2-0.4,1.9-0.6c1.3-0.3,2.6-0.3,3.9,0c0.6,0.1,1.3,0.3,1.9,0.6c0.6,0.3,1.2,0.6,1.7,0.9
		c0.5,0.4,1.1,0.8,1.5,1.2c0.5,0.5,0.9,1,1.2,1.5c0.4,0.5,0.7,1.1,0.9,1.7c0.3,0.6,0.4,1.2,0.6,1.9c0.1,0.6,0.2,1.3,0.2,1.9
		c0,0.7-0.1,1.3-0.2,1.9c-0.1,0.6-0.3,1.3-0.6,1.9c-0.2,0.6-0.6,1.2-0.9,1.7c-0.4,0.5-0.8,1.1-1.2,1.5c-0.5,0.5-1,0.9-1.5,1.2
		c-0.5,0.4-1.1,0.7-1.7,0.9c-0.6,0.3-1.2,0.4-1.9,0.6C1079.5,327.2,1078.9,327.3,1078.2,327.3z"/>
	<path class="st2" d="M1068.3,317.3c0-5.5,4.5-10,10-10l0,0c5.5,0,10,4.5,10,10l0,0c0,5.5-4.5,10-10,10l0,0
		C1072.7,327.3,1068.3,322.8,1068.3,317.3z"/>
	<path class="st2" d="M1770.6,317.3c0-5.5,4.5-10,10-10l0,0c5.5,0,10,4.5,10,10l0,0c0,5.5-4.5,10-10,10l0,0
		C1775,327.3,1770.6,322.8,1770.6,317.3z M1729.2,317.3c0-5.5,4.5-10,10-10l0,0c5.5,0,10,4.5,10,10l0,0c0,5.5-4.5,10-10,10l0,0
		C1733.7,327.3,1729.2,322.8,1729.2,317.3z M1687.9,317.3c0-5.5,4.5-10,10-10l0,0c5.5,0,10,4.5,10,10l0,0c0,5.5-4.5,10-10,10l0,0
		C1692.4,327.3,1687.9,322.8,1687.9,317.3z M1646.6,317.3c0-5.5,4.5-10,10-10l0,0c5.5,0,10,4.5,10,10l0,0c0,5.5-4.5,10-10,10l0,0
		C1651.1,327.3,1646.6,322.8,1646.6,317.3z M1605.3,317.3c0-5.5,4.5-10,10-10l0,0c5.5,0,10,4.5,10,10l0,0c0,5.5-4.5,10-10,10l0,0
		C1609.8,327.3,1605.3,322.8,1605.3,317.3z M1564,317.3c0-5.5,4.5-10,10-10l0,0c5.5,0,10,4.5,10,10l0,0c0,5.5-4.5,10-10,10l0,0
		C1568.5,327.3,1564,322.8,1564,317.3z M1522.7,317.3c0-5.5,4.5-10,10-10l0,0c5.5,0,10,4.5,10,10l0,0c0,5.5-4.5,10-10,10l0,0
		C1527.1,327.3,1522.7,322.8,1522.7,317.3z M1481.4,317.3c0-5.5,4.5-10,10-10l0,0c5.5,0,10,4.5,10,10l0,0c0,5.5-4.5,10-10,10l0,0
		C1485.8,327.3,1481.4,322.8,1481.4,317.3z M1440.1,317.3c0-5.5,4.5-10,10-10l0,0c5.5,0,10,4.5,10,10l0,0c0,5.5-4.5,10-10,10l0,0
		C1444.5,327.3,1440.1,322.8,1440.1,317.3z M1398.8,317.3c0-5.5,4.5-10,10-10l0,0c5.5,0,10,4.5,10,10l0,0c0,5.5-4.5,10-10,10l0,0
		C1403.2,327.3,1398.8,322.8,1398.8,317.3z M1357.4,317.3c0-5.5,4.5-10,10-10l0,0c5.5,0,10,4.5,10,10l0,0c0,5.5-4.5,10-10,10l0,0
		C1361.9,327.3,1357.4,322.8,1357.4,317.3z M1316.1,317.3c0-5.5,4.4-10,10-10l0,0c5.5,0,9.9,4.5,9.9,10l0,0c0,5.5-4.4,10-9.9,10l0,0
		C1320.6,327.3,1316.1,322.8,1316.1,317.3z M1274.8,317.3c0-5.5,4.5-10,10-10l0,0c5.5,0,10,4.5,10,10l0,0c0,5.5-4.5,10-10,10l0,0
		C1279.3,327.3,1274.8,322.8,1274.8,317.3z M1233.5,317.3c0-5.5,4.5-10,10-10l0,0c5.5,0,10,4.5,10,10l0,0c0,5.5-4.5,10-10,10l0,0
		C1238,327.3,1233.5,322.8,1233.5,317.3z M1192.2,317.3c0-5.5,4.5-10,10-10l0,0c5.5,0,10,4.5,10,10l0,0c0,5.5-4.5,10-10,10l0,0
		C1196.7,327.3,1192.2,322.8,1192.2,317.3z M1150.9,317.3c0-5.5,4.5-10,10-10l0,0c5.5,0,10,4.5,10,10l0,0c0,5.5-4.5,10-10,10l0,0
		C1155.4,327.3,1150.9,322.8,1150.9,317.3z M1109.6,317.3c0-5.5,4.5-10,10-10l0,0c5.5,0,10,4.5,10,10l0,0c0,5.5-4.5,10-10,10l0,0
		C1114,327.3,1109.6,322.8,1109.6,317.3z"/>
	<path class="st2" d="M1821.8,327.3c-0.7,0-1.3-0.1-1.9-0.2c-0.6-0.1-1.3-0.3-1.9-0.6c-0.6-0.2-1.2-0.6-1.7-0.9
		c-0.5-0.4-1.1-0.8-1.5-1.2c-0.5-0.5-0.9-1-1.2-1.5c-0.4-0.5-0.7-1.1-0.9-1.7c-0.3-0.6-0.4-1.2-0.6-1.9c-0.1-0.6-0.2-1.3-0.2-1.9
		c0-0.7,0.1-1.3,0.2-1.9c0.1-0.6,0.3-1.3,0.6-1.9c0.3-0.6,0.6-1.2,0.9-1.7c0.4-0.5,0.8-1.1,1.2-1.5c0.5-0.5,1-0.9,1.5-1.2
		c0.5-0.4,1.1-0.7,1.7-0.9c0.6-0.2,1.2-0.4,1.9-0.6c1.3-0.3,2.6-0.3,3.9,0c0.6,0.1,1.3,0.3,1.9,0.6c0.6,0.3,1.2,0.6,1.7,0.9
		c0.5,0.4,1.1,0.8,1.5,1.2c0.5,0.5,0.9,1,1.2,1.5c0.4,0.5,0.7,1.1,0.9,1.7c0.3,0.6,0.4,1.2,0.6,1.9c0.1,0.6,0.2,1.3,0.2,1.9
		c0,0.7-0.1,1.3-0.2,1.9c-0.1,0.6-0.3,1.3-0.6,1.9c-0.2,0.6-0.6,1.2-0.9,1.7c-0.4,0.5-0.8,1.1-1.2,1.5c-0.5,0.5-1,0.9-1.5,1.2
		c-0.5,0.4-1.1,0.7-1.7,0.9c-0.6,0.3-1.2,0.4-1.9,0.6C1823.1,327.2,1822.5,327.3,1821.8,327.3z"/>
	<path class="st2" d="M1811.9,317.3c0-5.5,4.5-10,10-10l0,0c5.5,0,10,4.5,10,10l0,0c0,5.5-4.5,10-10,10l0,0
		C1816.3,327.3,1811.9,322.8,1811.9,317.3z"/>
	<path class="st2" d="M1811.9,384.8c0-5.5,4.5-10,10-10l0,0c5.5,0,10,4.5,10,10l0,0c0,5.5-4.5,10-10,10l0,0
		C1816.3,394.7,1811.9,390.3,1811.9,384.8z M1811.9,351.1c0-5.5,4.5-10,10-10l0,0c5.5,0,10,4.5,10,10l0,0c0,5.5-4.5,10-10,10l0,0
		C1816.3,361,1811.9,356.6,1811.9,351.1z"/>
	<path class="st2" d="M1821.8,428.5c-0.7,0-1.3-0.1-1.9-0.2c-0.6-0.1-1.3-0.3-1.9-0.6c-0.6-0.2-1.2-0.6-1.7-0.9
		c-0.5-0.4-1.1-0.8-1.5-1.2c-0.5-0.5-0.9-1-1.2-1.5c-0.4-0.5-0.7-1.1-0.9-1.7c-0.3-0.6-0.4-1.2-0.6-1.9c-0.1-0.6-0.2-1.3-0.2-1.9
		c0-2.6,1.1-5.2,2.9-7c0.5-0.5,1-0.9,1.5-1.2c0.5-0.4,1.1-0.7,1.7-0.9c0.6-0.3,1.2-0.4,1.9-0.6c1.3-0.3,2.6-0.3,3.9,0
		c0.6,0.1,1.3,0.3,1.9,0.6c0.6,0.2,1.2,0.6,1.7,0.9c0.5,0.4,1.1,0.8,1.5,1.2c1.8,1.8,2.9,4.4,2.9,7c0,0.7-0.1,1.3-0.2,1.9
		c-0.1,0.6-0.3,1.3-0.6,1.9c-0.2,0.6-0.6,1.2-0.9,1.7c-0.4,0.5-0.8,1.1-1.2,1.5c-0.5,0.5-1,0.9-1.5,1.2c-0.5,0.4-1.1,0.7-1.7,0.9
		c-0.6,0.3-1.2,0.4-1.9,0.6C1823.1,428.4,1822.5,428.5,1821.8,428.5z"/>
</g>
<g>
	<path class="st3" d="M1476.8,417.9h-250.2c-19.4,0-35.1-15.7-35.1-35.1v-131c0-19.4,15.7-35.1,35.1-35.1h250.2
		c19.4,0,35.1,15.7,35.1,35.1v131C1511.9,402.2,1496.2,417.9,1476.8,417.9z"/>
	<path class="st4" d="M1476.8,216.8h-250.2c-19.4,0-35.1,15.7-35.1,35.1v21.4h320.4v-21.4C1511.9,232.5,1496.2,216.8,1476.8,216.8z"
		/>
	<path class="st5" d="M1493,356.8h-33.8c-2.4,0-4.3,1.9-4.3,4.3v33.8c0,2.5,3.1,3.6,4.7,1.6l7.6-9.6l14.3,14.3c1.5,1.5,4,1.5,5.5,0
		l12.4-12.4c1.5-1.5,1.5-4,0-5.5L1485,369l9.6-7.6C1496.5,359.9,1495.4,356.8,1493,356.8z"/>
</g>
<path class="st2" d="M906.9,184c-73.5,0-133.3,59.8-133.3,133.3s59.8,133.3,133.3,133.3c73.5,0,133.3-59.8,133.3-133.3
	S980.4,184,906.9,184z M1006.9,311.1c-0.4-11.3-1.8-22.3-4.2-32.8c13.8,9.6,22.3,20.9,24.5,32.8H1006.9z M861.8,311.1h-42.5
	c0.5-14.7,3-28.8,7.1-41.7c11.8-5.7,25.4-10.1,40-12.9C863.7,273.3,862.1,291.8,861.8,311.1z M879.4,254.5
	c8.9-1.1,18.1-1.7,27.5-1.7s18.6,0.6,27.5,1.7c3.1,17.1,4.8,36.4,5.1,56.6h-65.3C874.5,290.9,876.3,271.6,879.4,254.5z M861.8,323.5
	c0.3,19.3,1.9,37.8,4.6,54.5c-14.6-2.8-28.1-7.2-40-12.9c-4-12.9-6.5-26.9-7.1-41.7H861.8z M874.2,323.5h65.3
	c-0.3,20.2-2.1,39.5-5.1,56.6c-8.9,1.1-18.1,1.7-27.5,1.7s-18.6-0.6-27.5-1.7C876.3,363.1,874.5,343.8,874.2,323.5z M952,323.5h42.5
	c-0.5,14.7-3,28.8-7.1,41.7c-11.8,5.7-25.4,10.1-40,12.9C950.1,361.4,951.7,342.8,952,323.5z M952,311.1
	c-0.3-19.3-1.9-37.8-4.6-54.5c14.6,2.8,28.1,7.2,40,12.9c4,12.9,6.5,26.9,7.1,41.7H952z M944.9,243.5c-1.3-6.3-2.9-12.3-4.6-17.8
	c-3.1-10.1-6.7-18.5-10.6-25c21.5,8,39.8,27.1,51.4,52.6C970,248.9,957.8,245.6,944.9,243.5z M928.4,229.3c1.2,3.9,2.3,8,3.3,12.4
	c-8.1-0.9-16.4-1.3-24.9-1.3c-8.4,0-16.8,0.4-24.9,1.3c1-4.3,2.1-8.5,3.3-12.4c7.4-24.2,16.2-32.8,21.6-32.8S921,205.1,928.4,229.3z
	 M884,200.7c-3.9,6.5-7.5,14.9-10.6,25c-1.7,5.6-3.2,11.5-4.6,17.8c-12.9,2.2-25.1,5.5-36.2,9.7C844.2,227.8,862.5,208.7,884,200.7z
	 M806.9,311.1h-20.3c2.2-11.9,10.7-23.2,24.5-32.8C808.7,288.8,807.3,299.8,806.9,311.1z M806.9,323.5c0.4,11.3,1.8,22.3,4.2,32.8
	c-13.8-9.6-22.3-20.9-24.5-32.8H806.9z M868.8,391.2c1.3,6.3,2.9,12.3,4.6,17.8c3.1,10.1,6.7,18.5,10.6,25
	c-21.5-8-39.8-27.1-51.4-52.6C843.8,385.7,856,389,868.8,391.2z M885.3,405.3c-1.2-3.9-2.3-8-3.3-12.4c8.1,0.9,16.4,1.3,24.9,1.3
	s16.8-0.4,24.9-1.3c-1,4.3-2.1,8.5-3.3,12.4c-7.4,24.2-16.2,32.8-21.6,32.8S892.7,429.6,885.3,405.3z M929.7,434
	c3.9-6.5,7.5-14.9,10.6-25c1.7-5.6,3.2-11.5,4.6-17.8c12.9-2.2,25.1-5.5,36.2-9.7C969.5,406.9,951.3,425.9,929.7,434z M1006.9,323.5
	h20.3c-2.2,11.9-10.7,23.2-24.5,32.8C1005,345.8,1006.5,334.8,1006.9,323.5z M1020.8,277c-5.8-5.5-12.8-10.6-21-15.1
	c-0.7-0.4-1.5-0.8-2.2-1.2c-4.8-13.5-11.2-26-19.3-36.9c-2.3-3.1-4.6-6-7.1-8.7C994,229.4,1011.6,251.2,1020.8,277z M842.6,215
	c-2.5,2.7-4.8,5.6-7.1,8.7c-8.1,10.9-14.6,23.4-19.3,36.9c-0.7,0.4-1.5,0.8-2.2,1.2c-8.2,4.6-15.2,9.6-21,15.1
	C802.1,251.2,819.8,229.4,842.6,215z M793,357.7c5.8,5.5,12.8,10.6,21,15.1c0.7,0.4,1.5,0.8,2.2,1.2c4.8,13.5,11.2,26,19.3,36.9
	c2.3,3.1,4.6,6,7.1,8.7C819.8,405.2,802.1,383.4,793,357.7z M971.2,419.6c2.5-2.7,4.8-5.6,7.1-8.7c8.1-10.9,14.6-23.4,19.3-36.9
	c0.7-0.4,1.5-0.8,2.2-1.2c8.2-4.6,15.2-9.6,21-15.1C1011.6,383.4,994,405.2,971.2,419.6z"/>
<g>
	<path class="st6" d="M1845.4,801.7L1845.4,801.7c23.6,0,42.8,19.2,42.8,42.8v65.7h-85.6v-65.7
		C1802.7,820.9,1821.8,801.7,1845.4,801.7z"/>
	<path class="st7" d="M1845.4,801.7L1845.4,801.7c-1,0-2,0-3,0.1c19.2,1.4,34.3,17.4,34.3,36.9v71.4h11.5v-65.7
		C1888.2,820.9,1869.1,801.7,1845.4,801.7z"/>
	<polygon class="st8" points="1878.3,955.1 1812.6,955.1 1800.9,904 1890,904 	"/>
	<polygon class="st9" points="1876.3,904 1864.5,955.1 1878.3,955.1 1890,904 	"/>
	<path class="st1" d="M1887.4,881.9h-83.9c-9,0-16.3,7.3-16.3,16.3v0c0,9,7.3,16.3,16.3,16.3h83.9c9,0,16.3-7.3,16.3-16.3v0
		C1903.7,889.3,1896.4,881.9,1887.4,881.9z"/>
	<path class="st8" d="M1887.4,881.9h-13.7c9,0,16.3,7.3,16.3,16.3v0c0,9-7.3,16.3-16.3,16.3h13.7c9,0,16.3-7.3,16.3-16.3v0
		C1903.7,889.3,1896.4,881.9,1887.4,881.9z"/>
	<path class="st10" d="M1821.8,829.6c-1.8,4.6-3.2,6.1-7.9,7.9c4.6,1.8,6.1,3.2,7.9,7.9c1.8-4.6,3.2-6.1,7.9-7.9
		C1825,835.6,1823.6,834.2,1821.8,829.6z"/>
	<path class="st10" d="M1859.6,816.5c-1.8,4.6-3.2,6.1-7.9,7.9c4.6,1.8,6.1,3.2,7.9,7.9c1.8-4.6,3.2-6.1,7.9-7.9
		C1862.8,822.6,1861.3,821.1,1859.6,816.5z"/>
	<path class="st10" d="M1873.2,857.2c-1.8,4.6-3.2,6.1-7.9,7.9c4.6,1.8,6.1,3.2,7.9,7.9c1.8-4.6,3.2-6.1,7.9-7.9
		C1876.4,863.3,1875,861.9,1873.2,857.2z"/>
	<path class="st10" d="M1843.8,845.3c-1.8,4.6-3.2,6.1-7.9,7.9c4.6,1.8,6.1,3.2,7.9,7.9c1.8-4.6,3.2-6.1,7.9-7.9
		C1847.1,851.4,1845.6,849.9,1843.8,845.3z"/>
	<path class="st10" d="M1819.2,862.3c-1.8,4.6-3.2,6.1-7.9,7.9c4.6,1.8,6.1,3.2,7.9,7.9c1.8-4.6,3.2-6.1,7.9-7.9
		C1822.4,868.4,1820.9,867,1819.2,862.3z"/>
</g>
<g>
	<g>
		<path class="st11" d="M1559.4,954.4h-47.5v-16.1h41.5L1532.9,807h14.3l21.3,136.7C1569.4,949.4,1565.1,954.4,1559.4,954.4z"/>
		<polygon class="st4" points="1553.4,938.4 1511.9,938.4 1511.9,954.4 1486.3,954.4 1463.3,807 1532.9,807 		"/>
		<path class="st4" d="M1443,954.4h72c4.4,0,8-3.6,8-8l0,0c0-4.4-3.6-8-8-8h-72c-4.4,0-8,3.6-8,8l0,0
			C1435,950.8,1438.6,954.4,1443,954.4z"/>
	</g>
	<rect x="1243.6" y="485.2" class="st12" width="515.3" height="357.5"/>
	<rect x="1221" y="485.2" class="st4" width="508.3" height="357.5"/>
	<rect x="1221" y="485.2" class="st13" width="508.3" height="310.1"/>
	<rect x="1249.6" y="513.7" class="st4" width="451.2" height="253"/>
</g>
<g>
	<g>
		<path class="st14" d="M802.2,980.2L802.2,980.2c0,14.2,11.5,25.7,25.7,25.7h1093.2c14.2,0,25.7-11.5,25.7-25.7v0
			c0-14.2-11.5-25.7-25.7-25.7H827.9C813.7,954.4,802.2,966,802.2,980.2z"/>
		<path class="st15" d="M687.7,980.2L687.7,980.2c0,14.2,11.5,25.7,25.7,25.7h1067.5c14.2,0,25.7-11.5,25.7-25.7v0
			c0-14.2-11.5-25.7-25.7-25.7H713.4C699.2,954.4,687.7,966,687.7,980.2z"/>
	</g>
	<g>
		<g>
			<rect x="737.9" y="1005.9" class="st1" width="37.1" height="508.8"/>
			<rect x="889.7" y="1005.9" class="st1" width="37.1" height="508.8"/>
			<rect x="760.7" y="1432.1" class="st1" width="147.5" height="25.1"/>
		</g>
		<g>
			<rect x="1707.8" y="1005.9" class="st1" width="37.1" height="508.8"/>
			<rect x="1859.6" y="1005.9" class="st1" width="37.1" height="508.8"/>
			<rect x="1730.6" y="1432.1" class="st1" width="147.5" height="25.1"/>
		</g>
	</g>
</g>
<g>
	<g>
		<rect x="1017.6" y="1526.2" class="st16" width="181.5" height="25.4"/>
		<path class="st16" d="M1017.6,1526.2v-48c0-5.2,4.2-9.5,9.5-9.5h133.8c21.1,0,38.3,17.1,38.3,38.3v19.2H1017.6z"/>
	</g>
	<path class="st16" d="M1071.6,1533.5c-6.3,0-12.8-1.2-19.1-3.6c-26.7-10.5-39.8-40.7-29.3-67.4l105.1-266.6l-94.9-9.6
		c-28.6-2.9-49.4-28.4-46.5-56.9c2.9-28.6,28.4-49.4,56.9-46.5l163.2,16.5c16.2,1.6,30.7,10.8,39.2,24.7c8.5,13.9,9.9,31,4,46.1
		L1120,1500.6C1111.9,1521,1092.3,1533.5,1071.6,1533.5z"/>
</g>
<g>
	<path class="st16" d="M1151,965.5h-125.7c-14.1,0-27.5-6.1-36.9-16.6c-9.3-10.6-13.7-24.6-12-38.7l20.3-163.3
		c3.3-27,27.9-46.1,54.9-42.8c27,3.3,46.1,27.9,42.8,54.9L1081,867.1h70c27.2,0,49.2,22,49.2,49.2
		C1200.2,943.5,1178.1,965.5,1151,965.5z"/>
	<path class="st17" d="M1278.6,1523.6c-3.1,0-6.3-0.3-9.5-0.9c-28.2-5.2-46.9-32.3-41.7-60.6l47.9-259h-250.9c-28.7,0-52-23.3-52-52
		s23.3-52,52-52h313.4c15.4,0,30.1,6.9,40,18.7c9.9,11.9,14,27.5,11.2,42.7l-59.3,320.5C1325,1506,1303.2,1523.6,1278.6,1523.6z"/>
	<path class="st4" d="M1465.2,954.4h-96.8c-7.2,0-13-5.8-13-13v0c0-19.7,16-35.7,35.7-35.7h51.4c19.7,0,35.7,16,35.7,35.7v0
		C1478.2,948.6,1472.4,954.4,1465.2,954.4z"/>
	<path class="st11" d="M1475.5,927.7c-5.4-12.9-18.1-22-32.9-22h-51.4c-19.7,0-35.7,16-35.7,35.7c0,7.2,5.8,13,13,13h35.7
		C1421,935.2,1455.7,926.1,1475.5,927.7z"/>
	<path class="st18" d="M1375.3,950h-105.6c-18.6,0-33.7-15.1-33.7-33.7s15.1-33.7,33.7-33.7h105.6c18.6,0,33.7,15.1,33.7,33.7
		S1394,950,1375.3,950z"/>
	
		<ellipse transform="matrix(0.8924 -0.4512 0.4512 0.8924 -258.5945 727.0227)" class="st18" cx="1395.2" cy="905.8" rx="60.8" ry="40.7"/>
	<g>
		<path class="st13" d="M1117.5,469.1c-4.5-10.6-5-21.9-2.1-32.2c0.3,0.8,0.6,1.6,0.9,2.3c10.6,25.2,39.6,37,64.8,26.4
			c14.6-6.1,24.6-18.4,28.5-32.6c9,24.6-2.9,52.2-27.3,62.5C1157.1,506,1128.1,494.2,1117.5,469.1z"/>
		<path class="st18" d="M951.2,708.7h128.4c39.4,0,71.4-32,71.4-71.4V464.2H951.2V708.7z"/>
		<circle class="st13" cx="1126.7" cy="434" r="66.6"/>
		<circle class="st13" cx="1030" cy="436.5" r="55.8"/>
		<path class="st13" d="M973.5,700.3h29.8c23.3,0,42.3-18.9,42.3-42.3V418.5h-68.6c-38.7,0-70.1,31.4-70.1,70.1v145.1
			C906.9,670.5,936.7,700.3,973.5,700.3z"/>
		
			<ellipse transform="matrix(0.1091 -0.994 0.994 0.1091 453.5646 1526.1975)" class="st13" cx="1078.2" cy="510.1" rx="59.5" ry="59.5"/>
		
			<ellipse transform="matrix(0.1602 -0.9871 0.9871 0.1602 298.259 1537.5208)" class="st18" cx="1052.7" cy="593.5" rx="36.3" ry="36.3"/>
		<path class="st13" d="M1086.6,604L1086.6,604c-8.7,0-15.7-7-15.7-15.7V535h31.3v53.3C1102.3,597,1095.3,604,1086.6,604z"/>
		<path class="st13" d="M1097.7,464.3c-13.1,6-23,15.9-29.1,27.8c0.9-0.5,1.8-0.9,2.8-1.4c30.9-14.1,67.5-0.5,81.6,30.4
			c8.2,17.9,7.1,37.6-1.3,53.9c29-15,41.3-50.3,27.6-80.3C1165.2,463.8,1128.6,450.2,1097.7,464.3z"/>
	</g>
	<path class="st19" d="M992.8,1199.4c-36.4,0-71.3-20.4-88.2-55.4c-31.6-65.5-45.2-141.2-40.3-225.2c4.4-76.3,23.3-143.6,38.3-186.5
		c17.9-51,73.7-77.9,124.8-60c51,17.9,77.9,73.7,60,124.8c-13.1,37.4-52.3,166.9-6.4,261.9c23.5,48.7,3.1,107.2-45.6,130.7
		C1021.6,1196.3,1007.1,1199.4,992.8,1199.4z"/>
	<path class="st4" d="M1319.5,956.7H1221c-22.3,0-40.4-18.1-40.4-40.4s18.1-40.4,40.4-40.4h98.4c22.3,0,40.4,18.1,40.4,40.4
		S1341.8,956.7,1319.5,956.7z"/>
	<path class="st17" d="M1266.4,965.5h-123.9c-17.4,0-33.5-9.2-42.3-24.1l-97-163.3c-13.9-23.4-6.2-53.6,17.2-67.5
		c23.4-13.9,53.6-6.2,67.5,17.2l82.7,139.2h95.9c27.2,0,49.2,22,49.2,49.2C1315.6,943.5,1293.5,965.5,1266.4,965.5z"/>
	<path class="st18" d="M1463.8,929.6c-4.9,0-9.7-2.8-11.9-7.5c-3.9-8-11.1-14.9-37.3-10.4c-7.2,1.2-14.1-3.6-15.3-10.9
		c-1.2-7.2,3.6-14.1,10.8-15.3c12.2-2.1,49.4-8.4,65.6,25c3.2,6.6,0.5,14.5-6.1,17.7C1467.7,929.1,1465.8,929.6,1463.8,929.6z"/>
	<path class="st18" d="M1403,905.8c-2.4,0-4.8-0.6-7-2c-6.2-3.8-8.2-12-4.3-18.3c10.2-16.5,21.8-26.1,35.6-29.3
		c15.5-3.6,33.2,1.2,54.1,14.4c6.2,3.9,8,12.1,4.1,18.3c-3.9,6.2-12.1,8-18.3,4.1c-14.5-9.2-25.9-12.9-34-11
		c-4.1,1-10.6,3.8-19,17.3C1411.8,903.5,1407.4,905.8,1403,905.8z"/>
	<path class="st18" d="M1383.6,898.4c-0.6,0-1.3,0-2-0.1c-7.6-1.1-12.8-8.1-11.7-15.6c3.4-23.6,27.2-58.9,61.5-61.2
		c7.6-0.5,14.2,5.3,14.7,12.9c0.5,7.6-5.3,14.2-12.9,14.7c-17.9,1.2-33.9,23.2-35.9,37.5C1396.3,893.4,1390.4,898.4,1383.6,898.4z"
		/>
	<g>
		<rect x="1222.6" y="1526.2" class="st13" width="181.5" height="25.4"/>
		<path class="st20" d="M1222.6,1526.2v-48c0-5.2,4.2-9.5,9.5-9.5h133.8c21.1,0,38.3,17.1,38.3,38.3v19.2H1222.6z"/>
	</g>
</g>
<g>
	<path class="st20" d="M1409.3,585.9v65.7c0,7.7,6.3,14,14,14h103.8c7.7,0,14-6.3,14-14v-65.7c0-7.7-6.3-14-14-14h-103.8
		C1415.6,571.9,1409.3,578.1,1409.3,585.9z"/>
	<path class="st13" d="M1404.1,567.5v27.8c0,4.9,3.2,9.2,7.9,10.6l60.6,18.6c1.7,0.5,3.5,0.5,5.2,0l60.6-18.6
		c4.7-1.4,7.9-5.7,7.9-10.6v-27.8c0-4.1-3.3-7.5-7.5-7.5h-127.2C1407.5,560.1,1404.1,563.4,1404.1,567.5z"/>
	<rect x="1463.6" y="604.9" class="st21" width="23.2" height="8.5"/>
	<path class="st13" d="M1490.1,553.6h-29.9c-2.6,0-4.7-2.1-4.7-4.7l0,0c0-2.6,2.1-4.7,4.7-4.7h29.9c2.6,0,4.7,2.1,4.7,4.7l0,0
		C1494.8,551.5,1492.7,553.6,1490.1,553.6z"/>
</g>
<g>
	
		<ellipse transform="matrix(0.7071 -0.7071 0.7071 0.7071 14.0256 1267.3688)" class="st22" cx="1536.9" cy="616.8" rx="41.1" ry="41.1"/>
	
		<rect x="1565.4" y="641.2" transform="matrix(0.7071 -0.7071 0.7071 0.7071 -1.7619 1305.4836)" class="st20" width="19.2" height="27.4"/>
	<path class="st13" d="M1608.8,709.3l-37.5-37.5c-4.3-4.3-4.3-11.3,0-15.6l4.9-4.9c4.3-4.3,11.3-4.3,15.6,0l37.5,37.5
		c4.3,4.3,4.3,11.3,0,15.6l-4.9,4.9C1620.1,713.6,1613.1,713.6,1608.8,709.3z"/>
	<path class="st1" d="M1536.9,662.8c-12.3,0-23.9-4.8-32.6-13.5l0,0c-17.9-17.9-17.9-47.2,0-65.1c17.9-17.9,47.2-17.9,65.1,0
		c8.7,8.7,13.5,20.3,13.5,32.6c0,12.3-4.8,23.9-13.5,32.6C1560.7,658,1549.2,662.8,1536.9,662.8z M1511.3,642.3
		c6.8,6.8,15.9,10.6,25.5,10.6c9.6,0,18.7-3.8,25.5-10.6c6.8-6.8,10.6-15.9,10.6-25.5s-3.8-18.7-10.6-25.5c-14.1-14.1-37-14.1-51,0
		C1497.3,605.3,1497.3,628.2,1511.3,642.3L1511.3,642.3z"/>
</g>
<path class="st5" d="M1511.4,728.8H1439c-8.2,0-14.9-6.7-14.9-14.9v0c0-8.2,6.7-14.9,14.9-14.9h72.5c8.2,0,14.9,6.7,14.9,14.9v0
	C1526.3,722.1,1519.6,728.8,1511.4,728.8z"/>
<g>
	<g>
		<path class="st5" d="M1051.2,1257H882.1c-16.2,0-29.3-13.1-29.3-29.3v0c0-16.2,13.1-29.3,29.3-29.3h169.1
			c16.2,0,29.3,13.1,29.3,29.3v0C1080.5,1243.8,1067.4,1257,1051.2,1257z"/>
		<path class="st23" d="M1212.7,1257h-150.2c-16.2,0-29.3-13.1-29.3-29.3v0c0-16.2,13.1-29.3,29.3-29.3h150.2
			c16.2,0,29.3,13.1,29.3,29.3v0C1242.1,1243.8,1228.9,1257,1212.7,1257z"/>
	</g>
	<g>
		<g>
			<circle class="st13" cx="1106.7" cy="1533.1" r="18.4"/>
			<circle class="st13" cx="988.1" cy="1533.1" r="18.4"/>
		</g>
		<rect x="1029.2" y="1285.7" class="st20" width="36.5" height="229"/>
		<rect x="1023.3" y="1285.7" class="st13" width="48.3" height="54.2"/>
		<path class="st13" d="M985.4,1257v11.7c0,17.4,14.1,31.4,31.4,31.4h68.5c17.4,0,31.4-14.1,31.4-31.4V1257H985.4z"/>
		<path class="st13" d="M959.6,1514v14h175.8v-14c0-11.2-9.1-20.3-20.3-20.3H979.8C968.6,1493.7,959.6,1502.8,959.6,1514z"/>
	</g>
	<g>
		<path class="st23" d="M975.5,831.9H858.9c-17.2,0-31.1,13.9-31.1,31.1v215.3c0,17.2,13.9,31.1,31.1,31.1h116.6
			c17.2,0,31.1-13.9,31.1-31.1V863C1006.6,845.8,992.7,831.9,975.5,831.9z"/>
		<path class="st5" d="M940.5,831.9H823.9c-17.2,0-31.1,13.9-31.1,31.1v215.3c0,17.2,13.9,31.1,31.1,31.1h116.6
			c17.2,0,31.1-13.9,31.1-31.1V863C971.6,845.8,957.7,831.9,940.5,831.9z"/>
	</g>
	<path class="st13" d="M1033.8,1297.3h-92.1c-44.8,0-81.3-36.5-81.3-81.3V929c0-11,8.9-19.9,19.9-19.9c11,0,19.9,8.9,19.9,19.9v287
		c0,22.9,18.6,41.5,41.5,41.5h92.1c11,0,19.9,8.9,19.9,19.9S1044.8,1297.3,1033.8,1297.3z"/>
</g>
<g>
	<path class="st4" d="M1757.2,446.4l-24.6-24.6c-1.8-1.8-4.2-2.4-6.5-2l-4.2-4.2c7.6-11.7,6.2-27.5-4-37.7
		c-11.7-11.7-30.9-11.7-42.6,0c-5.7,5.7-8.8,13.3-8.8,21.3s3.1,15.6,8.8,21.3c5.7,5.7,13.3,8.8,21.3,8.8c5.9,0,11.6-1.7,16.4-4.8
		l4.2,4.2c-0.5,2.3,0.2,4.7,2,6.5l24.6,24.6c2.8,2.8,7.4,2.8,10.2,0l3.2-3.2C1760,453.8,1760,449.2,1757.2,446.4z M1680,416
		c-4.5-4.5-6.9-10.4-6.9-16.7s2.5-12.2,6.9-16.7c4.6-4.6,10.6-6.9,16.7-6.9c6,0,12.1,2.3,16.7,6.9c9.2,9.2,9.2,24.2,0,33.4
		c-4.5,4.5-10.4,6.9-16.7,6.9C1690.3,422.9,1684.4,420.5,1680,416z"/>
</g>
<g>
	<path class="st24" d="M1975.4,656.4h-244.2c-8.1,0-15.5,2.7-21.5,7.3l-37.1-15.9c-7.3-3.1-14.3,5.1-10,11.8L1696,712v19.5
		c0,19.5,15.8,35.3,35.3,35.3h244.2c19.5,0,35.3-15.8,35.3-35.3v-39.8C2010.7,672.2,1994.9,656.4,1975.4,656.4z"/>
	<g>
		<rect x="1747.7" y="680.9" class="st4" width="115.3" height="16.5"/>
		<rect x="1747.7" y="716.4" class="st4" width="208" height="16.5"/>
	</g>
</g>
<g>
	<g>
		<path class="st13" d="M1598.7,1320h-12.1v-28.7c0-3.4,2.7-6.1,6.1-6.1l0,0c3.4,0,6.1,2.7,6.1,6.1V1320z"/>
		<g>
			<path class="st25" d="M1593.1,1280.6h-4.1h-11h-69.1v17.9h69.1h11h4.1c4.9,0,8.9-4,8.9-8.9S1598.1,1280.6,1593.1,1280.6z"/>
			<path class="st20" d="M1511,1280.6h-6.9c-4.9,0-8.9,4-8.9,8.9s4,8.9,8.9,8.9h6.9c4.9,0,8.9-4,8.9-8.9S1515.9,1280.6,1511,1280.6z
				"/>
		</g>
		<path class="st25" d="M1513.3,1320h-12.1v-28.7c0-3.4,2.7-6.1,6.1-6.1l0,0c3.4,0,6.1,2.7,6.1,6.1V1320z"/>
	</g>
	<g>
		<path class="st13" d="M1667.1,1342.1v187.3c0,12.2-9.9,22.1-22.1,22.1h-182.7V1320H1645C1657.2,1320,1667.1,1329.9,1667.1,1342.1z
			"/>
		<path class="st20" d="M1450.5,1320h22.5c12.2,0,22.1,9.9,22.1,22.1v187.3c0,12.2-9.9,22.1-22.1,22.1h-22.5
			c-12.2,0-22.1-9.9-22.1-22.1v-187.3C1428.4,1329.9,1438.3,1320,1450.5,1320z"/>
		<path class="st25" d="M1674.9,1342.1v78.4c0,6.4-5.2,11.5-11.5,11.5h-156.7c-6.4,0-11.5-5.2-11.5-11.5v-78.4
			c0-12.2-9.9-22.1-22.1-22.1h179.7C1665,1320,1674.9,1329.9,1674.9,1342.1z"/>
		<rect x="1565.1" y="1412.4" class="st21" width="38.7" height="12.2"/>
	</g>
</g>
</svg>
