<?xml version="1.0" encoding="utf-8"?>
<!-- Generator: Adobe Illustrator 25.0.1, SVG Export Plug-In . SVG Version: 6.00 Build 0)  -->
<svg version="1.1" id="Layer_1" xmlns="http://www.w3.org/2000/svg" xmlns:xlink="http://www.w3.org/1999/xlink" x="0px" y="0px"
	 viewBox="0 0 2124.2 1578.5" style="enable-background:new 0 0 2124.2 1578.5;" xml:space="preserve">
<style type="text/css">
	.st0{opacity:0.4;fill:#B7D7F2;}
	.st1{fill:#9AC6E4;}
	.st2{fill:#00599C;}
	.st3{fill:#6CC394;}
	.st4{fill:#52AF7B;}
	.st5{fill:#72AECC;}
	.st6{fill:#4896B5;}
	.st7{fill:#95BFD8;}
	.st8{fill:#B1DCC1;}
	.st9{fill:#C7D5DE;}
	.st10{fill:#FFFFFF;}
	.st11{fill:#D6DFE8;}
	.st12{fill:#4D3656;}
	.st13{fill:#E8A572;}
	.st14{fill:#FCC687;}
	.st15{fill:#444B59;}
	.st16{fill:#5B6475;}
	.st17{fill:#F29A7F;}
	.st18{fill:#6C7687;}
	.st19{fill:#6D5E76;}
	.st20{fill:#FBDE8E;}
	.st21{opacity:0.44;fill:#FFFFFF;}
	.st22{fill:#F27792;}
	.st23{fill:#D74C6B;}
	.st24{fill:#5D4E68;}
</style>
<circle class="st0" cx="1136.7" cy="769.8" r="712.8"/>
<g>
	<path class="st1" d="M707.8,295.4c-0.6,0-1.3-0.1-1.9-0.2c-0.6-0.1-1.3-0.3-1.9-0.6c-0.6-0.2-1.2-0.6-1.7-0.9
		c-0.6-0.4-1.1-0.8-1.5-1.2c-0.5-0.5-0.9-1-1.2-1.5c-0.4-0.5-0.7-1.1-0.9-1.7c-0.2-0.6-0.4-1.2-0.6-1.9c-0.1-0.6-0.2-1.3-0.2-1.9
		c0-0.6,0.1-1.3,0.2-1.9c0.1-0.6,0.3-1.3,0.6-1.9c0.3-0.6,0.6-1.2,0.9-1.7c0.4-0.6,0.8-1.1,1.2-1.5c0.5-0.5,1-0.9,1.5-1.2
		c0.5-0.4,1.1-0.7,1.7-0.9c0.6-0.2,1.2-0.4,1.9-0.6c1.3-0.3,2.6-0.3,3.9,0c0.6,0.1,1.3,0.3,1.9,0.6c0.6,0.3,1.2,0.6,1.7,0.9
		c0.5,0.4,1.1,0.8,1.5,1.2c0.5,0.5,0.9,1,1.2,1.5c0.4,0.5,0.7,1.1,0.9,1.7c0.3,0.6,0.4,1.2,0.6,1.9c0.1,0.6,0.2,1.3,0.2,1.9
		c0,0.7-0.1,1.3-0.2,1.9c-0.1,0.6-0.3,1.3-0.6,1.9c-0.2,0.6-0.6,1.2-0.9,1.7c-0.4,0.5-0.8,1.1-1.2,1.5c-0.5,0.5-1,0.9-1.5,1.2
		c-0.5,0.4-1.1,0.7-1.7,0.9c-0.6,0.3-1.2,0.4-1.9,0.6C709.1,295.3,708.4,295.4,707.8,295.4z"/>
	<path class="st1" d="M697.8,285.4c0-5.5,4.5-10,10-10l0,0c5.5,0,10,4.5,10,10l0,0c0,5.5-4.5,10-10,10l0,0
		C702.3,295.4,697.8,290.9,697.8,285.4z"/>
	<path class="st1" d="M1400.1,285.4c0-5.5,4.5-10,10-10l0,0c5.5,0,10,4.5,10,10l0,0c0,5.5-4.5,10-10,10l0,0
		C1404.5,295.4,1400.1,290.9,1400.1,285.4z M1358.8,285.4c0-5.5,4.5-10,10-10l0,0c5.5,0,10,4.5,10,10l0,0c0,5.5-4.5,10-10,10l0,0
		C1363.2,295.4,1358.8,290.9,1358.8,285.4z M1317.5,285.4c0-5.5,4.5-10,10-10l0,0c5.5,0,10,4.5,10,10l0,0c0,5.5-4.5,10-10,10l0,0
		C1321.9,295.4,1317.5,290.9,1317.5,285.4z M1276.1,285.4c0-5.5,4.5-10,10-10l0,0c5.5,0,10,4.5,10,10l0,0c0,5.5-4.5,10-10,10l0,0
		C1280.6,295.4,1276.1,290.9,1276.1,285.4z M1234.8,285.4c0-5.5,4.5-10,10-10l0,0c5.5,0,10,4.5,10,10l0,0c0,5.5-4.5,10-10,10l0,0
		C1239.3,295.4,1234.8,290.9,1234.8,285.4z M1193.5,285.4c0-5.5,4.5-10,10-10l0,0c5.5,0,10,4.5,10,10l0,0c0,5.5-4.5,10-10,10l0,0
		C1198,295.4,1193.5,290.9,1193.5,285.4z M1152.2,285.4c0-5.5,4.5-10,10-10l0,0c5.5,0,10,4.5,10,10l0,0c0,5.5-4.5,10-10,10l0,0
		C1156.7,295.4,1152.2,290.9,1152.2,285.4z M1110.9,285.4c0-5.5,4.5-10,10-10l0,0c5.5,0,10,4.5,10,10l0,0c0,5.5-4.5,10-10,10l0,0
		C1115.4,295.4,1110.9,290.9,1110.9,285.4z M1069.6,285.4c0-5.5,4.5-10,10-10l0,0c5.5,0,10,4.5,10,10l0,0c0,5.5-4.5,10-10,10l0,0
		C1074.1,295.4,1069.6,290.9,1069.6,285.4z M1028.3,285.4c0-5.5,4.5-10,10-10l0,0c5.5,0,10,4.5,10,10l0,0c0,5.5-4.5,10-10,10l0,0
		C1032.7,295.4,1028.3,290.9,1028.3,285.4z M987,285.4c0-5.5,4.5-10,10-10l0,0c5.5,0,10,4.5,10,10l0,0c0,5.5-4.5,10-10,10l0,0
		C991.4,295.4,987,290.9,987,285.4z M945.7,285.4c0-5.5,4.4-10,10-10l0,0c5.5,0,9.9,4.5,9.9,10l0,0c0,5.5-4.4,10-9.9,10l0,0
		C950.1,295.4,945.7,290.9,945.7,285.4z M904.4,285.4c0-5.5,4.5-10,10-10l0,0c5.5,0,10,4.5,10,10l0,0c0,5.5-4.5,10-10,10l0,0
		C908.8,295.4,904.4,290.9,904.4,285.4z M863,285.4c0-5.5,4.5-10,10-10l0,0c5.5,0,10,4.5,10,10l0,0c0,5.5-4.5,10-10,10l0,0
		C867.5,295.4,863,290.9,863,285.4z M821.7,285.4c0-5.5,4.5-10,10-10l0,0c5.5,0,10,4.5,10,10l0,0c0,5.5-4.5,10-10,10l0,0
		C826.2,295.4,821.7,290.9,821.7,285.4z M780.4,285.4c0-5.5,4.5-10,10-10l0,0c5.5,0,10,4.5,10,10l0,0c0,5.5-4.5,10-10,10l0,0
		C784.9,295.4,780.4,290.9,780.4,285.4z M739.1,285.4c0-5.5,4.5-10,10-10l0,0c5.5,0,10,4.5,10,10l0,0c0,5.5-4.5,10-10,10l0,0
		C743.6,295.4,739.1,290.9,739.1,285.4z"/>
	<path class="st1" d="M1451.3,295.4c-0.7,0-1.3-0.1-1.9-0.2c-0.6-0.1-1.3-0.3-1.9-0.6c-0.6-0.2-1.2-0.6-1.7-0.9
		c-0.5-0.4-1.1-0.8-1.5-1.2c-0.5-0.5-0.9-1-1.2-1.5c-0.4-0.5-0.7-1.1-0.9-1.7c-0.3-0.6-0.4-1.2-0.6-1.9c-0.1-0.6-0.2-1.3-0.2-1.9
		c0-0.7,0.1-1.3,0.2-1.9c0.1-0.6,0.3-1.3,0.6-1.9c0.3-0.6,0.6-1.2,0.9-1.7c0.4-0.5,0.8-1.1,1.2-1.5c0.5-0.5,1-0.9,1.5-1.2
		c0.5-0.4,1.1-0.7,1.7-0.9c0.6-0.2,1.2-0.4,1.9-0.6c1.3-0.3,2.6-0.3,3.9,0c0.6,0.1,1.3,0.3,1.9,0.6c0.6,0.3,1.2,0.6,1.7,0.9
		c0.5,0.4,1.1,0.8,1.5,1.2c0.5,0.5,0.9,1,1.2,1.5c0.4,0.5,0.7,1.1,0.9,1.7c0.3,0.6,0.4,1.2,0.6,1.9c0.1,0.6,0.2,1.3,0.2,1.9
		c0,0.7-0.1,1.3-0.2,1.9c-0.1,0.6-0.3,1.3-0.6,1.9c-0.2,0.6-0.6,1.2-0.9,1.7c-0.4,0.5-0.8,1.1-1.2,1.5c-0.5,0.5-1,0.9-1.5,1.2
		c-0.5,0.4-1.1,0.7-1.7,0.9c-0.6,0.3-1.2,0.4-1.9,0.6C1452.6,295.3,1452,295.4,1451.3,295.4z"/>
	<path class="st1" d="M1441.4,285.4c0-5.5,4.5-10,10-10l0,0c5.5,0,10,4.5,10,10l0,0c0,5.5-4.5,10-10,10l0,0
		C1445.8,295.4,1441.4,290.9,1441.4,285.4z"/>
	<path class="st1" d="M1441.4,352.9c0-5.5,4.5-10,10-10l0,0c5.5,0,10,4.5,10,10l0,0c0,5.5-4.5,10-10,10l0,0
		C1445.8,362.8,1441.4,358.4,1441.4,352.9z M1441.4,319.2c0-5.5,4.5-10,10-10l0,0c5.5,0,10,4.5,10,10l0,0c0,5.5-4.5,10-10,10l0,0
		C1445.8,329.1,1441.4,324.6,1441.4,319.2z"/>
	<path class="st1" d="M1451.3,396.6c-0.7,0-1.3-0.1-1.9-0.2c-0.6-0.1-1.3-0.3-1.9-0.6c-0.6-0.2-1.2-0.6-1.7-0.9
		c-0.5-0.4-1.1-0.8-1.5-1.2c-0.5-0.5-0.9-1-1.2-1.5c-0.4-0.5-0.7-1.1-0.9-1.7c-0.3-0.6-0.4-1.2-0.6-1.9c-0.1-0.6-0.2-1.3-0.2-1.9
		c0-2.6,1.1-5.2,2.9-7c0.5-0.5,1-0.9,1.5-1.2c0.5-0.4,1.1-0.7,1.7-0.9c0.6-0.3,1.2-0.4,1.9-0.6c1.3-0.3,2.6-0.3,3.9,0
		c0.6,0.1,1.3,0.3,1.9,0.6c0.6,0.2,1.2,0.6,1.7,0.9c0.5,0.4,1.1,0.8,1.5,1.2c1.8,1.8,2.9,4.4,2.9,7c0,0.7-0.1,1.3-0.2,1.9
		c-0.1,0.6-0.3,1.3-0.6,1.9c-0.2,0.6-0.6,1.2-0.9,1.7c-0.4,0.5-0.8,1.1-1.2,1.5c-0.5,0.5-1,0.9-1.5,1.2c-0.5,0.4-1.1,0.7-1.7,0.9
		c-0.6,0.3-1.2,0.4-1.9,0.6C1452.6,396.5,1452,396.6,1451.3,396.6z"/>
</g>
<path class="st2" d="M536.4,152.1c-73.5,0-133.3,59.8-133.3,133.3s59.8,133.3,133.3,133.3c73.5,0,133.3-59.8,133.3-133.3
	S609.9,152.1,536.4,152.1z M636.4,279.2c-0.4-11.3-1.8-22.3-4.2-32.8c13.8,9.6,22.3,20.9,24.5,32.8H636.4z M491.3,279.2h-42.5
	c0.5-14.7,3-28.8,7.1-41.7c11.8-5.7,25.4-10.1,40-12.9C493.2,241.4,491.6,259.9,491.3,279.2z M508.9,222.6
	c8.9-1.1,18.1-1.7,27.5-1.7c9.4,0,18.6,0.6,27.5,1.7c3.1,17.1,4.8,36.4,5.1,56.6h-65.3C504.1,259,505.8,239.7,508.9,222.6z
	 M491.3,291.6c0.3,19.3,1.9,37.8,4.6,54.5c-14.6-2.8-28.1-7.2-40-12.9c-4-12.9-6.5-26.9-7.1-41.7H491.3z M503.8,291.6H569
	c-0.3,20.2-2.1,39.5-5.1,56.6c-8.9,1.1-18.1,1.7-27.5,1.7c-9.4,0-18.6-0.6-27.5-1.7C505.8,331.2,504.1,311.9,503.8,291.6z
	 M581.5,291.6h42.5c-0.5,14.7-3,28.8-7.1,41.7c-11.8,5.7-25.4,10.1-40,12.9C579.6,329.5,581.2,310.9,581.5,291.6z M581.5,279.2
	c-0.3-19.3-1.9-37.8-4.6-54.5c14.6,2.8,28.1,7.2,40,12.9c4,12.9,6.5,26.9,7.1,41.7H581.5z M574.4,211.6c-1.3-6.3-2.9-12.3-4.6-17.8
	c-3.1-10.1-6.7-18.5-10.6-25c21.5,8,39.8,27.1,51.4,52.6C599.5,217,587.3,213.7,574.4,211.6z M558,197.4c1.2,3.9,2.3,8,3.3,12.4
	c-8.1-0.9-16.4-1.3-24.9-1.3c-8.4,0-16.8,0.4-24.9,1.3c1-4.3,2.1-8.5,3.3-12.4c7.4-24.2,16.2-32.8,21.6-32.8
	C541.7,164.6,550.5,173.2,558,197.4z M513.5,168.8c-3.9,6.5-7.5,14.9-10.6,25c-1.7,5.6-3.2,11.5-4.6,17.8
	c-12.9,2.2-25.1,5.5-36.2,9.7C473.7,195.9,492,176.8,513.5,168.8z M436.4,279.2h-20.3c2.2-11.9,10.7-23.2,24.5-32.8
	C438.2,256.9,436.8,267.9,436.4,279.2z M436.4,291.6c0.4,11.3,1.8,22.3,4.2,32.8c-13.8-9.6-22.3-20.9-24.5-32.8H436.4z M498.4,359.3
	c1.3,6.3,2.9,12.3,4.6,17.8c3.1,10.1,6.7,18.5,10.6,25c-21.5-8-39.8-27.1-51.4-52.6C473.3,353.8,485.5,357.1,498.4,359.3z
	 M514.8,373.4c-1.2-3.9-2.3-8-3.3-12.4c8.1,0.9,16.4,1.3,24.9,1.3c8.4,0,16.8-0.4,24.9-1.3c-1,4.3-2.1,8.5-3.3,12.4
	c-7.4,24.2-16.2,32.8-21.6,32.8C531.1,406.3,522.3,397.7,514.8,373.4z M559.3,402.1c3.9-6.5,7.5-14.9,10.6-25
	c1.7-5.6,3.2-11.5,4.6-17.8c12.9-2.2,25.1-5.5,36.2-9.7C599.1,375,580.8,394,559.3,402.1z M636.4,291.6h20.3
	c-2.2,11.9-10.7,23.2-24.5,32.8C634.6,313.9,636,302.9,636.4,291.6z M650.3,245.1c-5.8-5.5-12.8-10.6-21-15.1
	c-0.7-0.4-1.5-0.8-2.2-1.2c-4.8-13.5-11.2-26-19.3-36.9c-2.3-3.1-4.6-6-7.1-8.7C623.5,197.5,641.1,219.3,650.3,245.1z M472.1,183.1
	c-2.5,2.7-4.8,5.6-7.1,8.7c-8.1,10.9-14.6,23.4-19.3,36.9c-0.7,0.4-1.5,0.8-2.2,1.2c-8.2,4.6-15.2,9.6-21,15.1
	C431.7,219.3,449.3,197.5,472.1,183.1z M422.5,325.8c5.8,5.5,12.8,10.6,21,15.1c0.7,0.4,1.5,0.8,2.2,1.2c4.8,13.5,11.2,26,19.3,36.9
	c2.3,3.1,4.6,6,7.1,8.7C449.3,373.3,431.7,351.5,422.5,325.8z M600.7,387.7c2.5-2.7,4.8-5.6,7.1-8.7c8.1-10.9,14.6-23.4,19.3-36.9
	c0.7-0.4,1.5-0.8,2.2-1.2c8.2-4.6,15.2-9.6,21-15.1C641.1,351.5,623.5,373.3,600.7,387.7z"/>
<g>
	<path class="st3" d="M1475,769.8L1475,769.8c23.6,0,42.8,19.2,42.8,42.8v65.7h-85.6v-65.7C1432.2,789,1451.3,769.8,1475,769.8z"/>
	<path class="st4" d="M1475,769.8L1475,769.8c-1,0-2,0-3,0.1c19.2,1.4,34.3,17.4,34.3,36.9v71.4h11.5v-65.7
		C1517.8,789,1498.6,769.8,1475,769.8z"/>
	<polygon class="st5" points="1507.8,923.2 1442.1,923.2 1430.4,872.1 1519.5,872.1 	"/>
	<polygon class="st6" points="1505.8,872.1 1494.1,923.2 1507.8,923.2 1519.5,872.1 	"/>
	<path class="st7" d="M1516.9,850H1433c-9,0-16.3,7.3-16.3,16.3v0c0,9,7.3,16.3,16.3,16.3h83.9c9,0,16.3-7.3,16.3-16.3v0
		C1533.3,857.4,1526,850,1516.9,850z"/>
	<path class="st5" d="M1516.9,850h-13.7c9,0,16.3,7.3,16.3,16.3v0c0,9-7.3,16.3-16.3,16.3h13.7c9,0,16.3-7.3,16.3-16.3v0
		C1533.3,857.4,1526,850,1516.9,850z"/>
	<path class="st8" d="M1451.3,797.7c-1.8,4.6-3.2,6.1-7.9,7.9c4.6,1.8,6.1,3.2,7.9,7.9c1.8-4.6,3.2-6.1,7.9-7.9
		C1454.6,803.7,1453.1,802.3,1451.3,797.7z"/>
	<path class="st8" d="M1489.1,784.6c-1.8,4.6-3.2,6.1-7.9,7.9c4.6,1.8,6.1,3.2,7.9,7.9c1.8-4.6,3.2-6.1,7.9-7.9
		C1492.3,790.7,1490.9,789.2,1489.1,784.6z"/>
	<path class="st8" d="M1502.7,825.3c-1.8,4.6-3.2,6.1-7.9,7.9c4.6,1.8,6.1,3.2,7.9,7.9c1.8-4.6,3.2-6.1,7.9-7.9
		C1505.9,831.4,1504.5,830,1502.7,825.3z"/>
	<path class="st8" d="M1473.4,813.4c-1.8,4.6-3.2,6.1-7.9,7.9c4.6,1.8,6.1,3.2,7.9,7.9c1.8-4.6,3.2-6.1,7.9-7.9
		C1476.6,819.5,1475.1,818,1473.4,813.4z"/>
	<circle class="st8" cx="1448.7" cy="838.3" r="7.9"/>
</g>
<g>
	<g>
		<path class="st9" d="M1188.9,922.5h-47.5v-16.1h41.5l-20.5-131.3h14.3l21.3,136.7C1198.9,917.5,1194.6,922.5,1188.9,922.5z"/>
		<polygon class="st10" points="1182.9,906.5 1141.4,906.5 1141.4,922.5 1115.9,922.5 1092.9,775.1 1162.4,775.1 		"/>
		<path class="st10" d="M1072.5,922.5h72c4.4,0,8-3.6,8-8l0,0c0-4.4-3.6-8-8-8h-72c-4.4,0-8,3.6-8,8l0,0
			C1064.5,918.9,1068.1,922.5,1072.5,922.5z"/>
	</g>
	<rect x="873.1" y="453.3" class="st11" width="515.3" height="357.5"/>
	<rect x="850.5" y="453.3" class="st10" width="508.3" height="357.5"/>
	<rect x="850.5" y="453.3" class="st12" width="508.3" height="310.1"/>
	<rect x="879.1" y="481.8" class="st10" width="451.2" height="253"/>
</g>
<g>
	<g>
		<path class="st13" d="M431.7,948.3L431.7,948.3c0,14.2,11.5,25.7,25.7,25.7h1093.2c14.2,0,25.7-11.5,25.7-25.7v0
			c0-14.2-11.5-25.7-25.7-25.7H457.5C443.3,922.5,431.7,934.1,431.7,948.3z"/>
		<path class="st14" d="M317.2,948.3L317.2,948.3c0,14.2,11.5,25.7,25.7,25.7h1067.5c14.2,0,25.7-11.5,25.7-25.7v0
			c0-14.2-11.5-25.7-25.7-25.7H342.9C328.7,922.5,317.2,934.1,317.2,948.3z"/>
	</g>
	<g>
		<g>
			<rect x="367.4" y="974" class="st7" width="37.1" height="508.8"/>
			<rect x="519.2" y="974" class="st7" width="37.1" height="508.8"/>
			<rect x="390.2" y="1400.2" class="st7" width="147.5" height="25.1"/>
		</g>
		<g>
			<rect x="1337.3" y="974" class="st7" width="37.1" height="508.8"/>
			<rect x="1489.1" y="974" class="st7" width="37.1" height="508.8"/>
			<rect x="1360.2" y="1400.2" class="st7" width="147.5" height="25.1"/>
		</g>
	</g>
</g>
<g>
	<g>
		<rect x="647.1" y="1494.3" class="st15" width="181.5" height="25.4"/>
		<path class="st15" d="M647.1,1494.3v-48c0-5.2,4.2-9.5,9.5-9.5h133.8c21.1,0,38.3,17.1,38.3,38.3v19.2H647.1z"/>
	</g>
	<path class="st15" d="M701.1,1501.6c-6.3,0-12.8-1.2-19.1-3.6c-26.7-10.5-39.8-40.7-29.3-67.4L757.8,1164l-94.9-9.6
		c-28.6-2.9-49.4-28.4-46.5-56.9c2.9-28.6,28.4-49.4,56.9-46.5l163.2,16.5c16.2,1.6,30.7,10.8,39.2,24.7c8.5,13.9,9.9,31,4,46.1
		l-130.3,330.4C741.4,1489.1,721.8,1501.6,701.1,1501.6z"/>
</g>
<g>
	<path class="st15" d="M780.5,933.6H654.8c-14.1,0-27.5-6.1-36.9-16.6c-9.3-10.6-13.7-24.6-12-38.7L626.2,715
		c3.3-27,27.9-46.1,54.9-42.8c27,3.3,46.1,27.9,42.8,54.9l-13.4,108.1h70c27.2,0,49.2,22,49.2,49.2
		C829.7,911.6,807.7,933.6,780.5,933.6z"/>
	<path class="st16" d="M908.1,1491.6c-3.1,0-6.3-0.3-9.5-0.9c-28.2-5.2-46.9-32.3-41.7-60.6l47.9-259H654c-28.7,0-52-23.3-52-52
		c0-28.7,23.3-52,52-52h313.4c15.4,0,30.1,6.9,40,18.7c9.9,11.9,14,27.5,11.2,42.7l-59.3,320.5
		C954.5,1474.1,932.7,1491.6,908.1,1491.6z"/>
	<path class="st10" d="M1094.7,922.5h-96.8c-7.2,0-13-5.8-13-13l0,0c0-19.7,16-35.7,35.7-35.7h51.4c19.7,0,35.7,16,35.7,35.7l0,0
		C1107.7,916.7,1101.9,922.5,1094.7,922.5z"/>
	<path class="st9" d="M1105,895.8c-5.4-12.9-18.1-22-32.9-22h-51.4c-19.7,0-35.7,16-35.7,35.7c0,7.2,5.8,13,13,13h35.7
		C1050.5,903.3,1085.3,894.2,1105,895.8z"/>
	<path class="st17" d="M1004.8,918.1H899.2c-18.6,0-33.7-15.1-33.7-33.7c0-18.6,15.1-33.7,33.7-33.7h105.6
		c18.6,0,33.7,15.1,33.7,33.7C1038.6,903,1023.5,918.1,1004.8,918.1z"/>
	
		<ellipse transform="matrix(0.8924 -0.4512 0.4512 0.8924 -284.06 556.4149)" class="st17" cx="1024.8" cy="873.9" rx="60.8" ry="40.7"/>
	<g>
		<path class="st12" d="M747,437.1c-4.5-10.6-5-21.9-2.1-32.2c0.3,0.8,0.6,1.6,0.9,2.3c10.6,25.2,39.6,37,64.8,26.4
			c14.6-6.1,24.6-18.4,28.5-32.6c9,24.6-2.9,52.2-27.3,62.5C786.7,474.1,757.6,462.3,747,437.1z"/>
		<path class="st17" d="M580.8,676.8h128.4c39.4,0,71.4-32,71.4-71.4V432.3H580.8V676.8z"/>
		
			<ellipse transform="matrix(0.7071 -0.7071 0.7071 0.7071 -62.8209 652.5336)" class="st12" cx="756.3" cy="402.1" rx="66.6" ry="66.6"/>
		<circle class="st12" cx="659.5" cy="404.6" r="55.8"/>
		<path class="st12" d="M603,668.4h29.8c23.3,0,42.3-18.9,42.3-42.3V386.6h-68.6c-38.7,0-70.1,31.4-70.1,70.1v145.1
			C536.4,638.6,566.2,668.4,603,668.4z"/>
		<circle class="st12" cx="707.8" cy="478.2" r="59.5"/>
		
			<ellipse transform="matrix(0.9239 -0.3827 0.3827 0.9239 -162.9744 303.8216)" class="st17" cx="682.2" cy="561.6" rx="36.3" ry="36.3"/>
		<path class="st12" d="M716.1,572.1L716.1,572.1c-8.7,0-15.7-7-15.7-15.7v-53.3h31.3v53.3C731.8,565.1,724.8,572.1,716.1,572.1z"/>
		<path class="st12" d="M727.2,432.4c-13.1,6-23,15.9-29.1,27.8c0.9-0.5,1.8-0.9,2.8-1.4c30.9-14.1,67.5-0.5,81.6,30.4
			c8.2,17.9,7.1,37.6-1.3,53.9c29-15,41.3-50.3,27.6-80.3C794.7,431.9,758.2,418.3,727.2,432.4z"/>
	</g>
	<path class="st18" d="M622.3,1167.5c-36.4,0-71.3-20.4-88.2-55.4c-31.6-65.5-45.2-141.2-40.3-225.2c4.4-76.3,23.3-143.6,38.3-186.5
		c17.9-51,73.7-77.9,124.8-60c51,17.9,77.9,73.7,60,124.8c-13.1,37.4-52.3,166.9-6.4,261.9c23.5,48.7,3.1,107.2-45.6,130.7
		C651.1,1164.3,636.6,1167.5,622.3,1167.5z"/>
	<path class="st10" d="M949,924.8h-98.4c-22.3,0-40.4-18.1-40.4-40.4c0-22.3,18.1-40.4,40.4-40.4H949c22.3,0,40.4,18.1,40.4,40.4
		C989.4,906.7,971.3,924.8,949,924.8z"/>
	<path class="st16" d="M895.9,933.6H772c-17.4,0-33.5-9.2-42.3-24.1l-97-163.3c-13.9-23.4-6.2-53.6,17.2-67.5
		c23.4-13.9,53.6-6.2,67.5,17.2L800,835.2h95.9c27.2,0,49.2,22,49.2,49.2C945.1,911.6,923.1,933.6,895.9,933.6z"/>
	<path class="st17" d="M1093.3,897.7c-4.9,0-9.7-2.8-11.9-7.5c-3.9-8-11.1-14.9-37.3-10.4c-7.2,1.2-14.1-3.6-15.3-10.9
		c-1.2-7.2,3.6-14.1,10.8-15.3c12.2-2.1,49.4-8.4,65.6,25c3.2,6.6,0.5,14.5-6.1,17.7C1097.3,897.2,1095.3,897.7,1093.3,897.7z"/>
	<path class="st17" d="M1032.5,873.9c-2.4,0-4.8-0.6-7-2c-6.2-3.8-8.2-12-4.3-18.3c10.2-16.5,21.8-26.1,35.6-29.3
		c15.5-3.6,33.2,1.2,54.1,14.4c6.2,3.9,8,12.1,4.1,18.3c-3.9,6.2-12.1,8-18.3,4.1c-14.5-9.2-25.9-12.9-34-11
		c-4.1,1-10.6,3.8-19,17.3C1041.3,871.6,1036.9,873.9,1032.5,873.9z"/>
	<path class="st17" d="M1013.2,866.5c-0.6,0-1.3,0-2-0.1c-7.6-1.1-12.8-8.1-11.7-15.6c3.4-23.6,27.2-58.9,61.5-61.2
		c7.6-0.5,14.2,5.3,14.7,12.9c0.5,7.6-5.3,14.2-12.9,14.7c-17.9,1.2-33.9,23.2-35.9,37.5C1025.8,861.5,1019.9,866.5,1013.2,866.5z"
		/>
	<g>
		<rect x="852.1" y="1494.3" class="st12" width="181.5" height="25.4"/>
		<path class="st19" d="M852.1,1494.3v-48c0-5.2,4.2-9.5,9.5-9.5h133.8c21.1,0,38.3,17.1,38.3,38.3v19.2H852.1z"/>
	</g>
</g>
<g>
	<path class="st19" d="M1038.8,554v65.7c0,7.7,6.3,14,14,14h103.8c7.7,0,14-6.3,14-14V554c0-7.7-6.3-14-14-14h-103.8
		C1045.1,540,1038.8,546.2,1038.8,554z"/>
	<path class="st12" d="M1033.6,535.6v27.8c0,4.9,3.2,9.2,7.9,10.6l60.6,18.6c1.7,0.5,3.5,0.5,5.2,0l60.6-18.6
		c4.7-1.4,7.9-5.7,7.9-10.6v-27.8c0-4.1-3.3-7.5-7.5-7.5h-127.2C1037,528.2,1033.6,531.5,1033.6,535.6z"/>
	<rect x="1093.1" y="573" class="st20" width="23.2" height="8.5"/>
	<path class="st12" d="M1119.6,521.7h-29.9c-2.6,0-4.7-2.1-4.7-4.7l0,0c0-2.6,2.1-4.7,4.7-4.7h29.9c2.6,0,4.7,2.1,4.7,4.7l0,0
		C1124.3,519.6,1122.2,521.7,1119.6,521.7z"/>
</g>
<g>
	<circle class="st21" cx="1166.4" cy="584.9" r="41.1"/>
	
		<rect x="1194.9" y="609.3" transform="matrix(0.7071 -0.7071 0.7071 0.7071 -87.7167 1034.1675)" class="st19" width="19.2" height="27.4"/>
	<path class="st12" d="M1238.4,677.3l-37.5-37.5c-4.3-4.3-4.3-11.3,0-15.6l4.9-4.9c4.3-4.3,11.3-4.3,15.6,0l37.5,37.5
		c4.3,4.3,4.3,11.3,0,15.6l-4.9,4.9C1249.7,681.7,1242.7,681.7,1238.4,677.3z"/>
	<path class="st7" d="M1166.4,630.9c-12.3,0-23.9-4.8-32.6-13.5l0,0c-17.9-17.9-17.9-47.2,0-65.1c17.9-17.9,47.2-17.9,65.1,0
		c8.7,8.7,13.5,20.3,13.5,32.6s-4.8,23.9-13.5,32.6C1190.2,626.1,1178.7,630.9,1166.4,630.9z M1140.9,610.4
		c6.8,6.8,15.9,10.6,25.5,10.6c9.6,0,18.7-3.8,25.5-10.6c6.8-6.8,10.6-15.9,10.6-25.5c0-9.6-3.8-18.7-10.6-25.5
		c-14.1-14.1-37-14.1-51,0C1126.8,573.4,1126.8,596.3,1140.9,610.4L1140.9,610.4z"/>
</g>
<path class="st22" d="M1140.9,696.9h-72.5c-8.2,0-14.9-6.7-14.9-14.9l0,0c0-8.2,6.7-14.9,14.9-14.9h72.5c8.2,0,14.9,6.7,14.9,14.9
	l0,0C1155.9,690.2,1149.2,696.9,1140.9,696.9z"/>
<g>
	<g>
		<path class="st22" d="M680.7,1225.1H511.7c-16.2,0-29.3-13.1-29.3-29.3v0c0-16.2,13.1-29.3,29.3-29.3h169.1
			c16.2,0,29.3,13.1,29.3,29.3v0C710.1,1211.9,696.9,1225.1,680.7,1225.1z"/>
		<path class="st23" d="M842.3,1225.1H692c-16.2,0-29.3-13.1-29.3-29.3v0c0-16.2,13.1-29.3,29.3-29.3h150.2
			c16.2,0,29.3,13.1,29.3,29.3v0C871.6,1211.9,858.5,1225.1,842.3,1225.1z"/>
	</g>
	<g>
		<g>
			<circle class="st12" cx="736.3" cy="1501.2" r="18.4"/>
			<circle class="st12" cx="617.7" cy="1501.2" r="18.4"/>
		</g>
		<rect x="658.7" y="1253.8" class="st19" width="36.5" height="229"/>
		<rect x="652.8" y="1253.8" class="st12" width="48.3" height="54.2"/>
		<path class="st12" d="M615,1225.1v11.7c0,17.4,14.1,31.4,31.4,31.4h68.5c17.4,0,31.4-14.1,31.4-31.4v-11.7H615z"/>
		<path class="st12" d="M589.1,1482.1v14h175.8v-14c0-11.2-9.1-20.3-20.3-20.3H609.4C598.2,1461.8,589.1,1470.9,589.1,1482.1z"/>
	</g>
	<g>
		<path class="st23" d="M605,800H488.4c-17.2,0-31.1,13.9-31.1,31.1v215.3c0,17.2,13.9,31.1,31.1,31.1H605
			c17.2,0,31.1-13.9,31.1-31.1V831.1C636.1,813.9,622.2,800,605,800z"/>
		<path class="st22" d="M570,800H453.4c-17.2,0-31.1,13.9-31.1,31.1v215.3c0,17.2,13.9,31.1,31.1,31.1H570
			c17.2,0,31.1-13.9,31.1-31.1V831.1C601.1,813.9,587.2,800,570,800z"/>
	</g>
	<path class="st12" d="M663.4,1265.4h-92.1c-44.8,0-81.3-36.5-81.3-81.3v-287c0-11,8.9-19.9,19.9-19.9c11,0,19.9,8.9,19.9,19.9v287
		c0,22.9,18.6,41.5,41.5,41.5h92.1c11,0,19.9,8.9,19.9,19.9C683.3,1256.5,674.4,1265.4,663.4,1265.4z"/>
</g>
<g>
	<path class="st10" d="M1688.9,402.9V468c0,20.6-16.7,37.3-37.3,37.3h-442.3c-20.6,0-37.3-16.7-37.3-37.3v-65.2
		c0-20.6,16.7-37.3,37.3-37.3h442.3C1672.2,365.6,1688.9,382.3,1688.9,402.9z"/>
	<path class="st2" d="M1316.9,365.6v139.8h-107.7c-20.6,0-37.3-16.7-37.3-37.3v-65.2c0-20.6,16.7-37.3,37.3-37.3H1316.9z"/>
	<path class="st10" d="M1288.7,466.3l-24.6-24.6c-1.8-1.8-4.2-2.4-6.5-2l-4.2-4.2c7.6-11.7,6.2-27.5-4-37.7
		c-11.7-11.7-30.9-11.7-42.6,0c-5.7,5.7-8.8,13.3-8.8,21.3s3.1,15.6,8.8,21.3c5.7,5.7,13.3,8.8,21.3,8.8c5.9,0,11.6-1.7,16.4-4.8
		l4.2,4.2c-0.5,2.3,0.2,4.7,2,6.5l24.6,24.6c2.8,2.8,7.4,2.8,10.2,0l3.2-3.2C1291.5,473.7,1291.5,469.1,1288.7,466.3z M1211.5,435.9
		c-4.5-4.5-6.9-10.4-6.9-16.7s2.5-12.2,6.9-16.7c4.6-4.6,10.6-6.9,16.7-6.9c6,0,12.1,2.3,16.7,6.9c9.2,9.2,9.2,24.2,0,33.4
		c-4.5,4.5-10.4,6.9-16.7,6.9S1215.9,440.4,1211.5,435.9z"/>
</g>
<g>
	<path class="st2" d="M1604.9,624.5h-244.2c-8.1,0-15.5,2.7-21.5,7.3l-37.1-15.9c-7.3-3.1-14.3,5.1-10,11.8l33.3,52.3v19.5
		c0,19.5,15.8,35.3,35.3,35.3h244.2c19.5,0,35.3-15.8,35.3-35.3v-39.8C1640.2,640.3,1624.4,624.5,1604.9,624.5z"/>
	<g>
		<rect x="1377.3" y="649" class="st10" width="115.3" height="16.5"/>
		<rect x="1377.3" y="684.5" class="st10" width="208" height="16.5"/>
	</g>
</g>
<g>
	<g>
		<path class="st12" d="M1228.2,1288.1H1216v-28.7c0-3.4,2.7-6.1,6.1-6.1l0,0c3.4,0,6.1,2.7,6.1,6.1V1288.1z"/>
		<g>
			<path class="st24" d="M1222.6,1248.7h-4.1h-11h-69.1v17.9h69.1h11h4.1c4.9,0,8.9-4,8.9-8.9
				C1231.6,1252.7,1227.6,1248.7,1222.6,1248.7z"/>
			<path class="st19" d="M1140.5,1248.7h-6.9c-4.9,0-8.9,4-8.9,8.9c0,4.9,4,8.9,8.9,8.9h6.9c4.9,0,8.9-4,8.9-8.9
				C1149.4,1252.7,1145.4,1248.7,1140.5,1248.7z"/>
		</g>
		<path class="st24" d="M1142.8,1288.1h-12.1v-28.7c0-3.4,2.7-6.1,6.1-6.1l0,0c3.4,0,6.1,2.7,6.1,6.1V1288.1z"/>
	</g>
	<g>
		<path class="st12" d="M1296.7,1310.2v187.3c0,12.2-9.9,22.1-22.1,22.1h-182.7v-231.5h182.7
			C1286.7,1288.1,1296.7,1298,1296.7,1310.2z"/>
		<path class="st19" d="M1080.1,1288.1h22.5c12.2,0,22.1,9.9,22.1,22.1v187.3c0,12.2-9.9,22.1-22.1,22.1h-22.5
			c-12.2,0-22.1-9.9-22.1-22.1v-187.3C1057.9,1298,1067.8,1288.1,1080.1,1288.1z"/>
		<path class="st24" d="M1304.4,1310.2v78.4c0,6.4-5.2,11.5-11.5,11.5h-156.7c-6.4,0-11.5-5.2-11.5-11.5v-78.4
			c0-12.2-9.9-22.1-22.1-22.1h179.7C1294.5,1288.1,1304.4,1298,1304.4,1310.2z"/>
		<rect x="1194.6" y="1380.5" class="st20" width="38.7" height="12.2"/>
	</g>
</g>
</svg>
